<svg xmlns="http://www.w3.org/2000/svg" width="200" height="200" viewBox="0 0 200 200"><path fill="#a684d6" d="M58 37L79 16L100 37L79 58ZM121 16L142 37L121 58L100 37ZM142 163L121 184L100 163L121 142ZM79 184L58 163L79 142L100 163ZM16 79L37 58L58 79L37 100ZM163 58L184 79L163 100L142 79ZM184 121L163 142L142 121L163 100ZM37 142L16 121L37 100L58 121ZM58 58L100 58L100 64.7L82.4 100L58 100ZM142 58L142 100L135.3 100L100 82.4L100 58ZM142 142L100 142L100 135.3L117.6 100L142 100ZM58 142L58 100L64.7 100L100 117.6L100 142Z"/><path fill="#5b5b5b" d="M23 37a14,14 0 1,1 28,0a14,14 0 1,1 -28,0M149 37a14,14 0 1,1 28,0a14,14 0 1,1 -28,0M149 163a14,14 0 1,1 28,0a14,14 0 1,1 -28,0M23 163a14,14 0 1,1 28,0a14,14 0 1,1 -28,0"/></svg>