<svg xmlns="http://www.w3.org/2000/svg" width="200" height="200" viewBox="0 0 200 200"><path fill="#b5cc66" d="M100 58L58 58L58 37ZM100 58L100 16L121 16ZM100 142L142 142L142 163ZM100 142L100 184L79 184ZM58 100L16 100L16 79ZM142 100L142 58L163 58ZM142 100L184 100L184 121ZM58 100L58 142L37 142ZM100 79L100 100L79 100ZM121 100L100 100L100 79ZM100 121L100 100L121 100ZM79 100L100 100L100 121Z"/><path fill="#829932" d="M58 58L16 58L16 37ZM142 58L142 16L163 16ZM142 142L184 142L184 163ZM58 142L58 184L37 184Z"/></svg>