<svg xmlns="http://www.w3.org/2000/svg" width="200" height="200" viewBox="0 0 200 200"><path fill="#cce5b2" d="M100 58L58 58L58 16ZM100 58L100 16L142 16ZM100 142L142 142L142 184ZM100 142L100 184L58 184ZM58 100L16 100L16 58ZM142 100L142 58L184 58ZM142 100L184 100L184 142ZM58 100L58 142L16 142Z"/><path fill="#679932" d="M58 58L16 58L16 16ZM142 58L142 16L184 16ZM142 142L184 142L184 184ZM58 142L58 184L16 184Z"/><path fill="#9acc66" d="M58 58L100 58L100 100L58 100ZM73.1 84a10.9,10.9 0 1,0 21.8,0a10.9,10.9 0 1,0 -21.8,0M142 58L142 100L100 100L100 58ZM105 84a10.9,10.9 0 1,0 21.8,0a10.9,10.9 0 1,0 -21.8,0M142 142L100 142L100 100L142 100ZM105 116a10.9,10.9 0 1,0 21.8,0a10.9,10.9 0 1,0 -21.8,0M58 142L58 100L100 100L100 142ZM73.1 116a10.9,10.9 0 1,0 21.8,0a10.9,10.9 0 1,0 -21.8,0"/></svg>