<svg xmlns="http://www.w3.org/2000/svg" width="200" height="200" viewBox="0 0 200 200"><path fill="#e8bae4" d="M58 16L100 16L100 37ZM142 16L142 58L121 58ZM142 184L100 184L100 163ZM58 184L58 142L79 142ZM16 58L58 58L58 79ZM184 58L184 100L163 100ZM184 142L142 142L142 121ZM16 142L16 100L37 100Z"/><path fill="#d175ca" d="M16 37L37 16L58 37L37 58ZM163 16L184 37L163 58L142 37ZM184 163L163 184L142 163L163 142ZM37 184L16 163L37 142L58 163Z"/><path fill="#545454" d="M58 58L100 58L100 100L58 100ZM73.1 84a10.9,10.9 0 1,0 21.8,0a10.9,10.9 0 1,0 -21.8,0M142 58L142 100L100 100L100 58ZM105 84a10.9,10.9 0 1,0 21.8,0a10.9,10.9 0 1,0 -21.8,0M142 142L100 142L100 100L142 100ZM105 116a10.9,10.9 0 1,0 21.8,0a10.9,10.9 0 1,0 -21.8,0M58 142L58 100L100 100L100 142ZM73.1 116a10.9,10.9 0 1,0 21.8,0a10.9,10.9 0 1,0 -21.8,0"/></svg>