<svg xmlns="http://www.w3.org/2000/svg" width="200" height="200" viewBox="0 0 200 200"><path fill="#e8e8e8" d="M58 16L100 16L100 58ZM142 16L142 58L100 58ZM142 184L100 184L100 142ZM58 184L58 142L100 142ZM16 58L58 58L58 100ZM184 58L184 100L142 100ZM184 142L142 142L142 100ZM16 142L16 100L58 100Z"/><path fill="#d1a275" d="M58 16L58 58L16 58ZM184 58L142 58L142 16ZM142 184L142 142L184 142ZM16 142L58 142L58 184Z"/><path fill="#a86f38" d="M100 58L100 91L79 58ZM142 100L109 100L142 79ZM100 142L100 109L121 142ZM58 100L91 100L58 121Z"/></svg>