<svg xmlns="http://www.w3.org/2000/svg" width="200" height="200" viewBox="0 0 200 200"><path fill="#a84438" d="M65 37a14,14 0 1,1 28,0a14,14 0 1,1 -28,0M107 37a14,14 0 1,1 28,0a14,14 0 1,1 -28,0M107 163a14,14 0 1,1 28,0a14,14 0 1,1 -28,0M65 163a14,14 0 1,1 28,0a14,14 0 1,1 -28,0M23 79a14,14 0 1,1 28,0a14,14 0 1,1 -28,0M149 79a14,14 0 1,1 28,0a14,14 0 1,1 -28,0M149 121a14,14 0 1,1 28,0a14,14 0 1,1 -28,0M23 121a14,14 0 1,1 28,0a14,14 0 1,1 -28,0"/><path fill="#e8e8e8" d="M16 37L37 16L58 37L37 58ZM163 16L184 37L163 58L142 37ZM184 163L163 184L142 163L163 142ZM37 184L16 163L37 142L58 163Z"/><path fill="#d17f75" d="M100 79L100 100L79 100ZM121 100L100 100L100 79ZM100 121L100 100L121 100ZM79 100L100 100L100 121Z"/></svg>