<svg xmlns="http://www.w3.org/2000/svg" width="200" height="200" viewBox="0 0 200 200"><path fill="#a83840" d="M100 58L58 58L58 37ZM100 58L100 16L121 16ZM100 142L142 142L142 163ZM100 142L100 184L79 184ZM58 100L16 100L16 79ZM142 100L142 58L163 58ZM142 100L184 100L184 121ZM58 100L58 142L37 142Z"/><path fill="#d1757c" d="M58 16L58 58L16 58ZM184 58L142 58L142 16ZM142 184L142 142L184 142ZM16 142L58 142L58 184ZM58 58L100 58L100 100L58 100ZM68.5 84.3L84.3 100L100 84.3L84.3 68.5ZM142 58L142 100L100 100L100 58ZM115.8 68.5L100 84.3L115.8 100L131.5 84.3ZM142 142L100 142L100 100L142 100ZM131.5 115.8L115.8 100L100 115.8L115.8 131.5ZM58 142L58 100L100 100L100 142ZM84.3 131.5L100 115.8L84.3 100L68.5 115.8Z"/></svg>