<svg xmlns="http://www.w3.org/2000/svg" width="200" height="200" viewBox="0 0 200 200"><path fill="#5b5b5b" d="M58 58L58 16L100 16ZM100 16L142 16L142 58ZM142 142L142 184L100 184ZM100 184L58 184L58 142ZM16 100L16 58L58 58ZM142 58L184 58L184 100ZM184 100L184 142L142 142ZM58 142L16 142L16 100Z"/><path fill="#8488d6" d="M58 58L16 58L16 37ZM142 58L142 16L163 16ZM142 142L184 142L184 163ZM58 142L58 184L37 184Z"/><path fill="#eaeaea" d="M58 58L100 58L100 100L58 100ZM84.9 95.8L95.8 74L74 74ZM142 58L142 100L100 100L100 58ZM104.2 84.9L126 95.8L126 74ZM142 142L100 142L100 100L142 100ZM115.1 104.2L104.2 126L126 126ZM58 142L58 100L100 100L100 142ZM95.8 115.1L74 104.2L74 126Z"/></svg>