<svg xmlns="http://www.w3.org/2000/svg" width="200" height="200" viewBox="0 0 200 200"><path fill="#e3e3e3" d="M58 58L58 16L79 16ZM100 16L142 16L142 37ZM142 142L142 184L121 184ZM100 184L58 184L58 163ZM16 100L16 58L37 58ZM142 58L184 58L184 79ZM184 100L184 142L163 142ZM58 142L16 142L16 121Z"/><path fill="#59c7b8" d="M16 58L16 16L58 16ZM142 16L184 16L184 58ZM184 142L184 184L142 184ZM58 184L16 184L16 142Z"/><path fill="#464646" d="M100 58L100 91L79 58ZM142 100L109 100L142 79ZM100 142L100 109L121 142ZM58 100L91 100L58 121Z"/></svg>